/* XPM */
static char * current_xpm[] = {
/*hints*/
"11 18 2 1",
/*colors*/
" 	s none c none",
".	s black 	m black	c black",
/*pixels*/
"           ",
"           ",
"           ",
"           ",
"           ",
"           ",
"  .......  ",
"  .......  ",
"  .......  ",
"  .......  ",
"  .......  ",
"  .......  ",
"           ",
"           ",
"           ",
"           ",
"           ",
"           "};
