/* XPM */
static char * cut_xpm[] = {
/* width height num_colors chars_per_pixel */
"12 18 3 1",
/*colors*/
" 	s none c none",
".	s black 	m black	c black",
"X	s white 	m white	c white",
/*pixels*/
"            ",
"            ",
"  ..     .  ",
"  ...   .   ",
"     ...    ",
"  ...   .   ",
"  ..     .  ",
"            ",
"   ......   ",
"   .XXXX.   ",
"   .X..X.   ",
"   .XXXX.   ",
"   .X..X.   ",
"   .XXXX.   ",
"   ......   ",
"            ",
"            ",
"            "};
