/* XPM */
static char * followmail_xpm[] = {
/* width height num_colors chars_per_pixel */
"17 18 3 1",
/* colors */
" 	s none c none",
".	s black 	m black	c black",
"X	s white 	m white	c white",
/* pixels */
" ...             ",
" .   ...         ",
" ... . .         ",
" .   ...         ",
"                 ",
" ............... ",
" ..XXXXXXXXXXX.. ",
" .X.XXXXXXXXX.X. ",
" .XX.XXXXXXX.XX. ",
" .XXX.XXXXX.XXX. ",
" .XXXX.XXX.XXXX. ",
" .XXXX..X..XXXX. ",
" .XXX.XX.XX.XXX. ",
" .XX.XXXXXXX.XX. ",
" .X.XXXXXXXXX.X. ",
" ..XXXXXXXXXXX.. ",
" ............... ",
"                 "};
