/* XPM */
static char * help_xpm[] = {
/* width height num_colors chars_per_pixel */
"11 18 3 1",
/* colors */
" 	s none c none",
".	s black 	m black	c black",
"X	s white 	m white	c white",
/* pixels */
"           ",
"           ",
"           ",
"           ",
"           ",
"    ....   ",
"   XXXX..  ",
"  XX  XX.  ",
"      XX   ",
"     XX    ",
"    XX     ",
"     ..    ",
"    XX     ",
"           ",
"           ",
"           ",
"           ",
"           "};
