/* XPM */
static char * insert_xpm[] = {
/* width height num_colors chars_per_pixel */
"19 18 3 1",
/* colors */
" 	s none c none",
".	s black 	m black	c black",
"X	s white 	m white	c white",
/* pixels */
"                   ",
"                   ",
"                   ",
"         ..        ",
"        .  . .     ",
"            ..     ",
"  ......   ...     ",
"  .XXXX.           ",
"  .X...... ......  ",
"  ..    .  .XXXX.  ",
"  ......   .X..X.  ",
"           .XXXX.  ",
"           .X..X.  ",
"           .XXXX.  ",
"           ......  ",
"                   ",
"                   ",
"                   "};
