/* XPM */
static char * new_xpm[] = {
/*Filename: projects/VisualOberon/new.xpm Size:16x18*/
"16 18 3 1",
/*colors*/
" 	s none c none",
".	s black 	m black	c black",
"X	s white 	m white	c white",
/*pixels*/
"                ",
"                ",
"  .........     ",
"  .XXXXXX.X.    ",
"  .XXXXXX.XX.   ",
"  .XXXXXX.XXX.  ",
"  .XXXXXX.....  ",
"  .XXXXXXXXXX.  ",
"  .XXXXXXXXXX.  ",
"  .XXXXXXXXXX.  ",
"  .XXXXXXXXXX.  ",
"  .XXXXXXXXXX.  ",
"  .XXXXXXXXXX.  ",
"  .XXXXXXXXXX.  ",
"  .XXXXXXXXXX.  ",
"  ............  ",
"                ",
"                "};
