/* XPM */
static char * news_xpm[] = {
/* width height num_colors chars_per_pixel */
"18 18 3 1",
/* colors */
" 	s none c none",
".	s black 	m black	c black",
"X	s white 	m white	c white",
/* pixels */
"                  ",
"                  ",
"                  ",
"                  ",
"                  ",
" ..........       ",
" .XXXXXXXX.       ",
" .X..........     ",
" .X.XXXXXXXX.     ",
" .X.X..........   ",
" ...X.XXXXXXXX.   ",
"   .X.X.......... ",
"   ...X.XXXXXXXX. ",
"     .X.XXXXXXXX. ",
"     ...XXXXXXXX. ",
"       .XXXXXXXX. ",
"       .......... ",
"                  "};
