/* XPM */
static char * open_xpm[] = {
/* width height num_colors chars_per_pixel */
"20 18 3 1",
/* colors */
" 	s none c none",
".	s black 	m black	c black",
"X	s white 	m white	c white",
/* pixels */
"                    ",
"                    ",
"                    ",
"           ...      ",
"          .   . .   ",
"               ..   ",
"  .....       ...   ",
"  .XXX.......       ",
"  .XXXXXXXXX.       ",
"  .XXXXXXXXX.       ",
"  .XXXX...........  ",
"  .XXX.         .   ",
"  .XX.         .    ",
"  .X.         .     ",
"  ..         .      ",
"  ...........       ",
"                    ",
"                    "};
