/* XPM */
static char * right_xpm[] = {
/* width height num_colors chars_per_pixel */
"9 18 2 1",
/* colors */
" 	s none c none",
".	s black 	m black	c black",
/* pixels */
"         ",
"         ",
"         ",
"         ",
"  .      ",
"  ..     ",
"  ...    ",
"  ....   ",
"  .....  ",
"  ....   ",
"  ...    ",
"  ..     ",
"  .      ",
"         ",
"         ",
"         ",
"         ",
"         "};
