/* XPM */
static char * undo_xpm[] = {
/* width height num_colors chars_per_pixel */
"19 18 2 1",
/* colors */
" 	s none c none",
".	s black 	m black	c black",
/* pixels */
"                   ",
"                   ",
"                   ",
"                   ",
"       ..          ",
"    . .  .         ",
"    ..    .        ",
"    ...            ",
"             .     ",
"             ..    ",
"  ..............   ",
"  ...............  ",
"  ..............   ",
"             ..    ",
"             .     ",
"                   ",
"                   ",
"                   "};
